<svg xmlns="http://www.w3.org/2000/svg" xmlns:xlink="http://www.w3.org/1999/xlink" width="1366" zoomAndPan="magnify" viewBox="0 0 1024.5 576" height="768" preserveAspectRatio="xMidYMid meet" version="1.0"><defs><clipPath id="747e3ef763"><path d="M 474 490 L 546 490 L 546 517.988281 L 474 517.988281 Z M 474 490 " clip-rule="nonzero"/></clipPath><clipPath id="a025a53004"><path d="M 502 57.710938 L 519 57.710938 L 519 93 L 502 93 Z M 502 57.710938 " clip-rule="nonzero"/></clipPath></defs><path fill="#e5b948" d="M 603.238281 166.847656 C 601.6875 165.367188 600.105469 163.929688 598.484375 162.527344 C 596.863281 161.121094 595.210938 159.761719 593.527344 158.4375 C 591.839844 157.113281 590.125 155.832031 588.378906 154.589844 C 586.632812 153.347656 584.855469 152.148438 583.050781 150.996094 C 581.246094 149.839844 579.417969 148.726562 577.558594 147.65625 C 575.703125 146.589844 573.820312 145.566406 571.914062 144.585938 C 570.007812 143.609375 568.078125 142.675781 566.128906 141.792969 C 564.175781 140.90625 562.207031 140.066406 560.214844 139.277344 C 558.222656 138.484375 556.214844 137.742188 554.1875 137.046875 C 552.160156 136.351562 550.117188 135.707031 548.058594 135.109375 C 546.003906 134.511719 543.929688 133.964844 541.847656 133.464844 C 539.761719 132.96875 537.667969 132.519531 535.5625 132.121094 C 533.457031 131.722656 531.34375 131.378906 529.222656 131.082031 C 527.101562 130.785156 524.972656 130.539062 522.835938 130.34375 C 520.703125 130.148438 518.566406 130.007812 516.425781 129.914062 C 514.285156 129.824219 512.144531 129.78125 510 129.792969 C 507.859375 129.804688 505.714844 129.867188 503.578125 129.980469 C 501.4375 130.09375 499.300781 130.257812 497.167969 130.472656 C 495.039062 130.6875 492.914062 130.953125 490.792969 131.269531 C 488.675781 131.589844 486.5625 131.957031 484.460938 132.375 C 482.359375 132.792969 480.269531 133.261719 478.191406 133.78125 C 476.113281 134.300781 474.046875 134.867188 471.996094 135.484375 C 469.945312 136.101562 467.90625 136.769531 465.886719 137.484375 C 463.867188 138.199219 461.867188 138.960938 459.882812 139.773438 C 457.898438 140.585938 455.9375 141.441406 453.996094 142.347656 C 452.054688 143.253906 450.132812 144.203125 448.238281 145.199219 C 446.339844 146.199219 444.46875 147.238281 442.621094 148.328125 C 440.773438 149.414062 438.957031 150.542969 437.164062 151.71875 C 435.371094 152.890625 433.605469 154.105469 431.871094 155.367188 C 430.136719 156.625 428.433594 157.921875 426.761719 159.261719 C 425.089844 160.601562 423.453125 161.980469 421.847656 163.402344 C 420.238281 164.820312 418.667969 166.277344 417.132812 167.769531 C 415.597656 169.261719 414.097656 170.792969 412.632812 172.359375 C 411.171875 173.925781 409.746094 175.523438 408.359375 177.15625 C 406.972656 178.792969 405.628906 180.457031 404.320312 182.15625 C 403.015625 183.855469 401.75 185.582031 400.527344 187.34375 C 399.304688 189.101562 398.121094 190.886719 396.984375 192.703125 C 395.847656 194.519531 394.753906 196.359375 393.703125 198.230469 C 392.652344 200.097656 391.648438 201.988281 390.691406 203.90625 C 389.730469 205.820312 388.816406 207.757812 387.953125 209.71875 C 387.085938 211.679688 386.265625 213.660156 385.496094 215.65625 C 384.722656 217.65625 384 219.671875 383.324219 221.707031 C 382.652344 223.742188 382.027344 225.789062 381.449219 227.851562 C 380.871094 229.917969 380.34375 231.992188 379.867188 234.082031 C 379.390625 236.171875 378.964844 238.269531 378.585938 240.378906 C 378.210938 242.488281 377.886719 244.605469 377.609375 246.730469 C 377.335938 248.855469 377.109375 250.984375 376.9375 253.121094 C 376.765625 255.257812 376.644531 257.394531 376.574219 259.539062 C 376.503906 261.679688 376.484375 263.820312 376.515625 265.964844 C 376.546875 268.105469 376.628906 270.246094 376.765625 272.386719 C 376.898438 274.523438 377.085938 276.65625 377.320312 278.789062 C 377.558594 280.917969 377.847656 283.039062 378.183594 285.15625 C 378.523438 287.269531 378.914062 289.378906 379.351562 291.476562 C 379.792969 293.570312 380.28125 295.65625 380.820312 297.730469 C 381.359375 299.804688 381.949219 301.863281 382.585938 303.910156 C 383.226562 305.957031 383.910156 307.984375 384.648438 309.996094 C 385.382812 312.011719 386.164062 314.003906 386.996094 315.980469 C 387.828125 317.953125 388.703125 319.90625 389.628906 321.839844 C 390.554688 323.773438 391.523438 325.683594 392.539062 327.570312 C 393.554688 329.457031 394.617188 331.316406 395.722656 333.152344 C 396.828125 334.988281 397.976562 336.796875 399.167969 338.578125 C 400.359375 340.359375 401.59375 342.109375 402.867188 343.832031 C 404.144531 345.554688 405.460938 347.242188 406.816406 348.902344 C 408.171875 350.5625 409.570312 352.1875 411.003906 353.777344 C 416.050781 359.300781 420.585938 365.21875 424.613281 371.523438 C 428.640625 377.828125 432.097656 384.433594 434.988281 391.335938 C 437.878906 398.234375 440.15625 405.335938 441.824219 412.628906 C 443.488281 419.921875 444.519531 427.304688 444.914062 434.777344 L 575.476562 434.777344 C 575.902344 427.273438 576.964844 419.859375 578.664062 412.535156 C 580.359375 405.210938 582.667969 398.085938 585.585938 391.15625 C 588.5 384.226562 591.984375 377.597656 596.039062 371.261719 C 600.089844 364.929688 604.648438 358.988281 609.71875 353.4375 C 611.160156 351.839844 612.5625 350.210938 613.925781 348.546875 C 615.292969 346.882812 616.613281 345.1875 617.898438 343.460938 C 619.179688 341.734375 620.417969 339.976562 621.617188 338.191406 C 622.816406 336.402344 623.96875 334.585938 625.078125 332.746094 C 626.191406 330.902344 627.257812 329.035156 628.277344 327.140625 C 629.296875 325.246094 630.273438 323.328125 631.199219 321.390625 C 632.128906 319.449219 633.011719 317.488281 633.84375 315.503906 C 634.679688 313.519531 635.464844 311.519531 636.203125 309.496094 C 636.941406 307.476562 637.628906 305.441406 638.269531 303.386719 C 638.910156 301.332031 639.5 299.261719 640.039062 297.179688 C 640.578125 295.097656 641.070312 293.003906 641.507812 290.898438 C 641.949219 288.792969 642.335938 286.675781 642.675781 284.554688 C 643.011719 282.429688 643.300781 280.296875 643.535156 278.160156 C 643.769531 276.019531 643.953125 273.878906 644.085938 271.730469 C 644.21875 269.582031 644.296875 267.433594 644.328125 265.28125 C 644.355469 263.132812 644.332031 260.980469 644.257812 258.832031 C 644.183594 256.679688 644.058594 254.535156 643.878906 252.390625 C 643.703125 250.246094 643.472656 248.105469 643.191406 245.972656 C 642.910156 243.839844 642.578125 241.714844 642.195312 239.597656 C 641.8125 237.484375 641.378906 235.375 640.894531 233.28125 C 640.410156 231.183594 639.875 229.101562 639.292969 227.03125 C 638.707031 224.960938 638.074219 222.90625 637.390625 220.863281 C 636.707031 218.824219 635.972656 216.800781 635.191406 214.796875 C 634.414062 212.792969 633.585938 210.808594 632.707031 208.84375 C 631.832031 206.878906 630.910156 204.9375 629.9375 203.015625 C 628.96875 201.09375 627.953125 199.199219 626.894531 197.328125 C 625.832031 195.457031 624.726562 193.613281 623.578125 191.792969 C 622.429688 189.972656 621.234375 188.183594 620 186.421875 C 618.765625 184.664062 617.488281 182.933594 616.167969 181.234375 C 614.847656 179.535156 613.492188 177.867188 612.089844 176.230469 C 610.691406 174.597656 609.253906 173 607.777344 171.433594 C 606.300781 169.867188 604.789062 168.339844 603.238281 166.847656 Z M 510.226562 366.433594 C 508.53125 366.433594 506.835938 366.390625 505.144531 366.308594 C 503.453125 366.226562 501.761719 366.101562 500.074219 365.933594 C 498.386719 365.769531 496.707031 365.5625 495.03125 365.3125 C 493.355469 365.0625 491.683594 364.773438 490.023438 364.445312 C 488.359375 364.113281 486.707031 363.742188 485.0625 363.328125 C 483.417969 362.917969 481.785156 362.464844 480.164062 361.972656 C 478.542969 361.480469 476.933594 360.949219 475.335938 360.378906 C 473.742188 359.808594 472.160156 359.199219 470.59375 358.550781 C 469.03125 357.902344 467.480469 357.214844 465.949219 356.492188 C 464.417969 355.765625 462.902344 355.003906 461.410156 354.207031 C 459.914062 353.40625 458.441406 352.570312 456.984375 351.699219 C 455.53125 350.828125 454.101562 349.921875 452.691406 348.980469 C 451.28125 348.039062 449.898438 347.0625 448.535156 346.054688 C 447.175781 345.042969 445.839844 344 444.527344 342.925781 C 443.21875 341.851562 441.9375 340.746094 440.679688 339.605469 C 439.425781 338.46875 438.199219 337.300781 437 336.101562 C 435.800781 334.902344 434.632812 333.675781 433.492188 332.421875 C 432.355469 331.164062 431.25 329.882812 430.175781 328.570312 C 429.097656 327.261719 428.054688 325.925781 427.046875 324.566406 C 426.039062 323.203125 425.0625 321.816406 424.121094 320.410156 C 423.179688 319 422.273438 317.570312 421.402344 316.113281 C 420.53125 314.660156 419.695312 313.1875 418.894531 311.691406 C 418.097656 310.199219 417.335938 308.683594 416.609375 307.152344 C 415.886719 305.621094 415.199219 304.070312 414.550781 302.503906 C 413.902344 300.941406 413.292969 299.359375 412.722656 297.761719 C 412.148438 296.167969 411.617188 294.558594 411.125 292.9375 C 410.636719 291.316406 410.183594 289.683594 409.769531 288.039062 C 409.359375 286.394531 408.988281 284.742188 408.65625 283.078125 C 408.328125 281.417969 408.039062 279.746094 407.789062 278.070312 C 407.539062 276.394531 407.332031 274.710938 407.167969 273.027344 C 407 271.339844 406.875 269.648438 406.792969 267.957031 C 406.710938 266.265625 406.667969 264.570312 406.667969 262.875 C 406.667969 261.179688 406.710938 259.488281 406.792969 257.792969 C 406.875 256.101562 407 254.410156 407.167969 252.726562 C 407.332031 251.039062 407.539062 249.355469 407.789062 247.679688 C 408.039062 246.003906 408.328125 244.335938 408.65625 242.671875 C 408.988281 241.011719 409.359375 239.355469 409.769531 237.714844 C 410.183594 236.070312 410.636719 234.4375 411.125 232.8125 C 411.617188 231.191406 412.148438 229.582031 412.722656 227.988281 C 413.292969 226.390625 413.902344 224.8125 414.550781 223.246094 C 415.199219 221.679688 415.886719 220.132812 416.609375 218.597656 C 417.335938 217.066406 418.097656 215.554688 418.894531 214.058594 C 419.695312 212.5625 420.53125 211.089844 421.402344 209.636719 C 422.273438 208.183594 423.179688 206.75 424.121094 205.34375 C 425.0625 203.933594 426.039062 202.546875 427.046875 201.1875 C 428.054688 199.824219 429.097656 198.488281 430.175781 197.179688 C 431.25 195.867188 432.355469 194.585938 433.492188 193.332031 C 434.632812 192.074219 435.800781 190.847656 437 189.648438 C 438.199219 188.449219 439.425781 187.28125 440.679688 186.144531 C 441.9375 185.007812 443.21875 183.898438 444.527344 182.824219 C 445.839844 181.75 447.175781 180.707031 448.535156 179.695312 C 449.898438 178.6875 451.28125 177.710938 452.691406 176.769531 C 454.101562 175.828125 455.53125 174.921875 456.984375 174.050781 C 458.441406 173.179688 459.914062 172.34375 461.410156 171.546875 C 462.902344 170.746094 464.417969 169.984375 465.949219 169.261719 C 467.480469 168.535156 469.03125 167.847656 470.59375 167.199219 C 472.160156 166.550781 473.742188 165.941406 475.335938 165.371094 C 476.933594 164.800781 478.542969 164.269531 480.164062 163.777344 C 481.785156 163.285156 483.417969 162.832031 485.0625 162.421875 C 486.707031 162.007812 488.359375 161.636719 490.023438 161.308594 C 491.683594 160.976562 493.355469 160.6875 495.03125 160.4375 C 496.707031 160.191406 498.386719 159.984375 500.074219 159.816406 C 501.761719 159.648438 503.453125 159.527344 505.144531 159.441406 C 506.835938 159.359375 508.53125 159.316406 510.226562 159.316406 C 511.921875 159.316406 513.613281 159.359375 515.308594 159.441406 C 517 159.527344 518.6875 159.648438 520.375 159.816406 C 522.0625 159.984375 523.742188 160.191406 525.421875 160.4375 C 527.097656 160.6875 528.765625 160.976562 530.429688 161.308594 C 532.089844 161.636719 533.742188 162.007812 535.386719 162.421875 C 537.03125 162.832031 538.664062 163.285156 540.285156 163.777344 C 541.910156 164.269531 543.515625 164.800781 545.113281 165.371094 C 546.707031 165.941406 548.289062 166.550781 549.855469 167.199219 C 551.421875 167.847656 552.96875 168.535156 554.503906 169.261719 C 556.035156 169.984375 557.546875 170.746094 559.042969 171.546875 C 560.535156 172.34375 562.011719 173.179688 563.464844 174.050781 C 564.917969 174.921875 566.351562 175.828125 567.757812 176.769531 C 569.167969 177.710938 570.554688 178.6875 571.914062 179.695312 C 573.277344 180.707031 574.613281 181.75 575.921875 182.824219 C 577.230469 183.898438 578.515625 185.007812 579.769531 186.144531 C 581.027344 187.28125 582.253906 188.449219 583.453125 189.648438 C 584.648438 190.847656 585.820312 192.074219 586.957031 193.332031 C 588.09375 194.585938 589.203125 195.867188 590.277344 197.179688 C 591.351562 198.488281 592.394531 199.824219 593.402344 201.1875 C 594.414062 202.546875 595.390625 203.933594 596.332031 205.34375 C 597.273438 206.75 598.179688 208.183594 599.050781 209.636719 C 599.921875 211.089844 600.757812 212.5625 601.554688 214.058594 C 602.355469 215.554688 603.117188 217.066406 603.839844 218.597656 C 604.566406 220.132812 605.25 221.679688 605.898438 223.246094 C 606.546875 224.8125 607.160156 226.390625 607.730469 227.988281 C 608.300781 229.582031 608.832031 231.191406 609.324219 232.8125 C 609.816406 234.4375 610.269531 236.070312 610.679688 237.714844 C 611.089844 239.355469 611.460938 241.011719 611.792969 242.671875 C 612.125 244.335938 612.414062 246.003906 612.664062 247.679688 C 612.910156 249.355469 613.117188 251.039062 613.285156 252.726562 C 613.449219 254.410156 613.574219 256.101562 613.660156 257.792969 C 613.742188 259.488281 613.78125 261.179688 613.78125 262.875 C 613.78125 264.570312 613.738281 266.261719 613.652344 267.957031 C 613.570312 269.648438 613.441406 271.335938 613.273438 273.023438 C 613.105469 274.707031 612.898438 276.390625 612.648438 278.066406 C 612.398438 279.742188 612.105469 281.410156 611.773438 283.070312 C 611.441406 284.734375 611.070312 286.386719 610.65625 288.027344 C 610.246094 289.671875 609.792969 291.304688 609.300781 292.925781 C 608.804688 294.546875 608.273438 296.152344 607.703125 297.75 C 607.128906 299.34375 606.519531 300.921875 605.871094 302.488281 C 605.222656 304.054688 604.535156 305.601562 603.808594 307.132812 C 603.085938 308.664062 602.320312 310.175781 601.523438 311.671875 C 600.722656 313.164062 599.886719 314.636719 599.015625 316.089844 C 598.144531 317.542969 597.238281 318.976562 596.296875 320.382812 C 595.355469 321.792969 594.378906 323.175781 593.371094 324.535156 C 592.359375 325.898438 591.316406 327.234375 590.242188 328.542969 C 589.167969 329.851562 588.0625 331.132812 586.921875 332.390625 C 585.785156 333.644531 584.617188 334.871094 583.417969 336.070312 C 582.222656 337.269531 580.996094 338.4375 579.738281 339.574219 C 578.484375 340.710938 577.203125 341.816406 575.890625 342.894531 C 574.582031 343.96875 573.246094 345.011719 571.886719 346.019531 C 570.527344 347.03125 569.140625 348.003906 567.734375 348.945312 C 566.324219 349.886719 564.894531 350.796875 563.441406 351.667969 C 561.988281 352.539062 560.515625 353.375 559.019531 354.171875 C 557.527344 354.972656 556.015625 355.734375 554.484375 356.460938 C 552.953125 357.183594 551.402344 357.871094 549.839844 358.519531 C 548.273438 359.171875 546.691406 359.78125 545.097656 360.351562 C 543.503906 360.925781 541.894531 361.457031 540.273438 361.949219 C 538.652344 362.441406 537.019531 362.894531 535.378906 363.308594 C 533.734375 363.722656 532.082031 364.09375 530.421875 364.425781 C 528.757812 364.757812 527.089844 365.046875 525.414062 365.296875 C 523.738281 365.546875 522.058594 365.757812 520.371094 365.925781 C 518.6875 366.09375 516.996094 366.21875 515.304688 366.304688 C 513.613281 366.386719 511.917969 366.429688 510.226562 366.433594 Z M 510.226562 366.433594 " fill-opacity="1" fill-rule="nonzero"/><path fill="#e5b948" d="M 460.113281 450.796875 L 560.335938 450.796875 L 560.335938 474.074219 L 460.113281 474.074219 Z M 460.113281 450.796875 " fill-opacity="1" fill-rule="nonzero"/><g clip-path="url(#747e3ef763)"><path fill="#e5b948" d="M 545.519531 490.097656 C 545.292969 491.085938 545.027344 492.066406 544.71875 493.039062 C 544.414062 494.007812 544.066406 494.960938 543.675781 495.902344 C 543.289062 496.839844 542.863281 497.761719 542.394531 498.667969 C 541.929688 499.570312 541.429688 500.453125 540.886719 501.316406 C 540.347656 502.175781 539.773438 503.015625 539.160156 503.828125 C 538.550781 504.640625 537.90625 505.425781 537.230469 506.1875 C 536.554688 506.945312 535.84375 507.675781 535.105469 508.375 C 534.367188 509.074219 533.601562 509.738281 532.808594 510.375 C 532.011719 511.007812 531.191406 511.609375 530.347656 512.175781 C 529.503906 512.738281 528.636719 513.269531 527.746094 513.761719 C 526.855469 514.253906 525.945312 514.707031 525.019531 515.125 C 524.089844 515.539062 523.148438 515.914062 522.1875 516.25 C 521.226562 516.585938 520.253906 516.882812 519.269531 517.136719 C 518.285156 517.390625 517.292969 517.601562 516.289062 517.773438 C 515.285156 517.945312 514.277344 518.074219 513.265625 518.15625 C 512.253906 518.242188 511.238281 518.285156 510.21875 518.285156 C 509.203125 518.285156 508.1875 518.242188 507.175781 518.15625 C 506.160156 518.074219 505.152344 517.945312 504.152344 517.773438 C 503.148438 517.601562 502.15625 517.390625 501.171875 517.136719 C 500.1875 516.882812 499.214844 516.585938 498.253906 516.25 C 497.292969 515.914062 496.351562 515.539062 495.421875 515.125 C 494.496094 514.707031 493.585938 514.253906 492.695312 513.761719 C 491.804688 513.269531 490.9375 512.738281 490.09375 512.175781 C 489.246094 511.609375 488.429688 511.007812 487.632812 510.375 C 486.839844 509.738281 486.070312 509.074219 485.332031 508.375 C 484.59375 507.675781 483.886719 506.945312 483.210938 506.1875 C 482.535156 505.425781 481.890625 504.640625 481.277344 503.828125 C 480.667969 503.015625 480.09375 502.175781 479.554688 501.316406 C 479.011719 500.453125 478.511719 499.570312 478.042969 498.667969 C 477.578125 497.761719 477.152344 496.839844 476.765625 495.902344 C 476.375 494.960938 476.027344 494.007812 475.71875 493.039062 C 475.414062 492.066406 475.148438 491.085938 474.921875 490.097656 Z M 545.519531 490.097656 " fill-opacity="1" fill-rule="nonzero"/></g><path fill="#e5b948" d="M 377.441406 143.929688 L 364.425781 130.914062 C 364.039062 130.542969 363.691406 130.140625 363.382812 129.703125 C 363.078125 129.265625 362.816406 128.800781 362.601562 128.3125 C 362.386719 127.824219 362.226562 127.316406 362.113281 126.792969 C 362 126.269531 361.941406 125.742188 361.933594 125.207031 C 361.925781 124.671875 361.972656 124.144531 362.070312 123.617188 C 362.171875 123.09375 362.320312 122.582031 362.523438 122.085938 C 362.722656 121.59375 362.972656 121.121094 363.269531 120.675781 C 363.5625 120.230469 363.902344 119.820312 364.277344 119.441406 C 364.65625 119.0625 365.066406 118.726562 365.515625 118.429688 C 365.960938 118.136719 366.429688 117.886719 366.925781 117.6875 C 367.417969 117.484375 367.929688 117.335938 368.457031 117.234375 C 368.980469 117.136719 369.511719 117.089844 370.046875 117.097656 C 370.578125 117.101562 371.109375 117.164062 371.628906 117.277344 C 372.152344 117.386719 372.660156 117.550781 373.148438 117.765625 C 373.640625 117.980469 374.101562 118.238281 374.539062 118.546875 C 374.976562 118.855469 375.382812 119.203125 375.75 119.589844 L 388.765625 132.605469 C 389.152344 132.972656 389.5 133.375 389.808594 133.8125 C 390.113281 134.25 390.375 134.714844 390.589844 135.203125 C 390.800781 135.695312 390.964844 136.199219 391.078125 136.722656 C 391.191406 137.246094 391.25 137.773438 391.257812 138.308594 C 391.265625 138.84375 391.21875 139.375 391.121094 139.898438 C 391.019531 140.425781 390.871094 140.933594 390.667969 141.429688 C 390.46875 141.925781 390.21875 142.394531 389.921875 142.839844 C 389.628906 143.285156 389.289062 143.699219 388.914062 144.074219 C 388.535156 144.453125 388.121094 144.789062 387.675781 145.085938 C 387.230469 145.382812 386.761719 145.628906 386.265625 145.832031 C 385.769531 146.03125 385.261719 146.183594 384.734375 146.28125 C 384.210938 146.382812 383.679688 146.429688 383.144531 146.421875 C 382.613281 146.414062 382.082031 146.355469 381.558594 146.242188 C 381.039062 146.128906 380.53125 145.964844 380.042969 145.75 C 379.550781 145.539062 379.089844 145.277344 378.652344 144.96875 C 378.210938 144.664062 377.808594 144.316406 377.441406 143.929688 Z M 377.441406 143.929688 " fill-opacity="1" fill-rule="nonzero"/><g clip-path="url(#a025a53004)"><path fill="#e5b948" d="M 518.234375 65.722656 L 518.234375 84.144531 C 518.234375 84.671875 518.183594 85.191406 518.082031 85.707031 C 517.980469 86.222656 517.828125 86.722656 517.625 87.210938 C 517.425781 87.695312 517.175781 88.15625 516.886719 88.59375 C 516.59375 89.03125 516.261719 89.4375 515.890625 89.808594 C 515.515625 90.179688 515.113281 90.511719 514.675781 90.804688 C 514.238281 91.097656 513.777344 91.34375 513.289062 91.546875 C 512.804688 91.746094 512.304688 91.898438 511.789062 92 C 511.273438 92.105469 510.75 92.15625 510.226562 92.15625 C 509.699219 92.15625 509.179688 92.105469 508.664062 92 C 508.148438 91.898438 507.644531 91.746094 507.160156 91.546875 C 506.675781 91.34375 506.210938 91.097656 505.773438 90.804688 C 505.339844 90.511719 504.933594 90.179688 504.5625 89.808594 C 504.191406 89.4375 503.859375 89.03125 503.566406 88.59375 C 503.273438 88.15625 503.027344 87.695312 502.824219 87.210938 C 502.625 86.722656 502.472656 86.222656 502.371094 85.707031 C 502.265625 85.191406 502.214844 84.671875 502.214844 84.144531 L 502.214844 65.722656 C 502.214844 65.195312 502.265625 64.675781 502.371094 64.160156 C 502.472656 63.644531 502.625 63.144531 502.824219 62.65625 C 503.027344 62.171875 503.273438 61.710938 503.566406 61.273438 C 503.859375 60.835938 504.191406 60.429688 504.5625 60.058594 C 504.933594 59.6875 505.339844 59.355469 505.773438 59.0625 C 506.210938 58.769531 506.675781 58.523438 507.160156 58.320312 C 507.644531 58.121094 508.148438 57.96875 508.664062 57.867188 C 509.179688 57.765625 509.699219 57.710938 510.226562 57.710938 C 510.75 57.710938 511.273438 57.765625 511.789062 57.867188 C 512.304688 57.96875 512.804688 58.121094 513.289062 58.320312 C 513.777344 58.523438 514.238281 58.769531 514.675781 59.0625 C 515.113281 59.355469 515.515625 59.6875 515.890625 60.058594 C 516.261719 60.429688 516.59375 60.835938 516.886719 61.273438 C 517.175781 61.710938 517.425781 62.171875 517.625 62.65625 C 517.828125 63.144531 517.980469 63.644531 518.082031 64.160156 C 518.183594 64.675781 518.234375 65.195312 518.234375 65.722656 Z M 518.234375 65.722656 " fill-opacity="1" fill-rule="nonzero"/></g><path fill="#e5b948" d="M 339.496094 266.429688 C 339.496094 266.957031 339.445312 267.476562 339.339844 267.992188 C 339.238281 268.507812 339.085938 269.007812 338.886719 269.496094 C 338.683594 269.980469 338.4375 270.441406 338.144531 270.878906 C 337.851562 271.316406 337.519531 271.722656 337.148438 272.09375 C 336.777344 272.464844 336.371094 272.796875 335.933594 273.089844 C 335.496094 273.382812 335.035156 273.628906 334.550781 273.828125 C 334.0625 274.03125 333.5625 274.183594 333.046875 274.285156 C 332.53125 274.386719 332.011719 274.441406 331.484375 274.441406 L 313.0625 274.441406 C 312.535156 274.441406 312.015625 274.386719 311.5 274.285156 C 310.984375 274.183594 310.484375 274.03125 309.996094 273.828125 C 309.511719 273.628906 309.050781 273.382812 308.613281 273.089844 C 308.175781 272.796875 307.769531 272.464844 307.398438 272.09375 C 307.027344 271.722656 306.695312 271.316406 306.402344 270.878906 C 306.109375 270.441406 305.863281 269.980469 305.660156 269.496094 C 305.460938 269.007812 305.308594 268.507812 305.207031 267.992188 C 305.105469 267.476562 305.050781 266.957031 305.050781 266.429688 C 305.050781 265.902344 305.105469 265.382812 305.207031 264.867188 C 305.308594 264.351562 305.460938 263.851562 305.660156 263.363281 C 305.863281 262.878906 306.109375 262.417969 306.402344 261.980469 C 306.695312 261.542969 307.027344 261.136719 307.398438 260.765625 C 307.769531 260.394531 308.175781 260.0625 308.613281 259.769531 C 309.050781 259.476562 309.511719 259.230469 309.996094 259.03125 C 310.484375 258.828125 310.984375 258.675781 311.5 258.574219 C 312.015625 258.472656 312.535156 258.421875 313.0625 258.421875 L 331.484375 258.421875 C 332.011719 258.421875 332.53125 258.472656 333.046875 258.574219 C 333.5625 258.675781 334.0625 258.828125 334.550781 259.03125 C 335.035156 259.230469 335.496094 259.476562 335.933594 259.769531 C 336.371094 260.0625 336.777344 260.394531 337.148438 260.765625 C 337.519531 261.136719 337.851562 261.542969 338.144531 261.980469 C 338.4375 262.417969 338.683594 262.878906 338.886719 263.363281 C 339.085938 263.851562 339.238281 264.351562 339.339844 264.867188 C 339.445312 265.382812 339.496094 265.902344 339.496094 266.429688 Z M 339.496094 266.429688 " fill-opacity="1" fill-rule="nonzero"/><path fill="#e5b948" d="M 659.578125 398.402344 C 659.9375 398.777344 660.253906 399.183594 660.53125 399.621094 C 660.808594 400.054688 661.042969 400.515625 661.230469 400.996094 C 661.417969 401.480469 661.558594 401.972656 661.652344 402.484375 C 661.746094 402.992188 661.789062 403.503906 661.78125 404.023438 C 661.773438 404.539062 661.71875 405.050781 661.613281 405.558594 C 661.507812 406.0625 661.355469 406.554688 661.152344 407.03125 C 660.953125 407.507812 660.707031 407.960938 660.417969 408.390625 C 660.128906 408.820312 659.800781 409.21875 659.4375 409.582031 C 659.070312 409.949219 658.671875 410.277344 658.242188 410.566406 C 657.816406 410.855469 657.363281 411.097656 656.886719 411.300781 C 656.410156 411.5 655.917969 411.65625 655.410156 411.761719 C 654.902344 411.867188 654.390625 411.921875 653.875 411.929688 C 653.359375 411.933594 652.84375 411.890625 652.335938 411.800781 C 651.828125 411.707031 651.332031 411.566406 650.851562 411.378906 C 650.367188 411.1875 649.910156 410.957031 649.472656 410.675781 C 649.035156 410.398438 648.628906 410.082031 648.253906 409.726562 L 635.238281 396.710938 C 634.882812 396.335938 634.566406 395.929688 634.289062 395.492188 C 634.011719 395.058594 633.777344 394.597656 633.589844 394.117188 C 633.398438 393.632812 633.257812 393.140625 633.167969 392.628906 C 633.074219 392.121094 633.03125 391.609375 633.039062 391.089844 C 633.042969 390.574219 633.101562 390.0625 633.207031 389.554688 C 633.3125 389.050781 633.464844 388.558594 633.667969 388.082031 C 633.867188 387.605469 634.113281 387.152344 634.402344 386.722656 C 634.691406 386.292969 635.015625 385.894531 635.382812 385.53125 C 635.75 385.164062 636.144531 384.835938 636.574219 384.546875 C 637.003906 384.257812 637.457031 384.015625 637.933594 383.8125 C 638.410156 383.613281 638.902344 383.457031 639.410156 383.351562 C 639.914062 383.246094 640.425781 383.191406 640.945312 383.183594 C 641.460938 383.179688 641.972656 383.222656 642.484375 383.3125 C 642.992188 383.40625 643.488281 383.546875 643.96875 383.734375 C 644.449219 383.925781 644.910156 384.15625 645.347656 384.4375 C 645.78125 384.714844 646.1875 385.03125 646.5625 385.386719 Z M 659.578125 398.402344 " fill-opacity="1" fill-rule="nonzero"/><path fill="#e5b948" d="M 718.941406 262.875 C 718.941406 263.402344 718.890625 263.921875 718.789062 264.4375 C 718.6875 264.953125 718.535156 265.453125 718.332031 265.941406 C 718.132812 266.425781 717.886719 266.886719 717.59375 267.324219 C 717.300781 267.761719 716.96875 268.167969 716.597656 268.539062 C 716.226562 268.910156 715.820312 269.242188 715.382812 269.535156 C 714.945312 269.828125 714.484375 270.074219 714 270.277344 C 713.511719 270.476562 713.011719 270.628906 712.496094 270.730469 C 711.980469 270.835938 711.457031 270.886719 710.933594 270.886719 L 692.511719 270.886719 C 691.984375 270.886719 691.464844 270.835938 690.949219 270.730469 C 690.433594 270.628906 689.929688 270.476562 689.445312 270.277344 C 688.960938 270.074219 688.496094 269.828125 688.058594 269.535156 C 687.621094 269.242188 687.21875 268.910156 686.847656 268.539062 C 686.472656 268.167969 686.140625 267.761719 685.851562 267.324219 C 685.558594 266.886719 685.3125 266.425781 685.109375 265.941406 C 684.910156 265.453125 684.757812 264.953125 684.652344 264.4375 C 684.550781 263.921875 684.5 263.402344 684.5 262.875 C 684.5 262.347656 684.550781 261.828125 684.652344 261.3125 C 684.757812 260.796875 684.910156 260.296875 685.109375 259.808594 C 685.3125 259.324219 685.558594 258.863281 685.851562 258.425781 C 686.140625 257.988281 686.472656 257.582031 686.847656 257.210938 C 687.21875 256.839844 687.621094 256.507812 688.058594 256.214844 C 688.496094 255.921875 688.960938 255.675781 689.445312 255.476562 C 689.929688 255.273438 690.433594 255.121094 690.949219 255.019531 C 691.464844 254.917969 691.984375 254.867188 692.511719 254.867188 L 710.933594 254.867188 C 711.457031 254.867188 711.980469 254.917969 712.496094 255.019531 C 713.011719 255.121094 713.511719 255.273438 714 255.476562 C 714.484375 255.675781 714.945312 255.921875 715.382812 256.214844 C 715.820312 256.507812 716.226562 256.839844 716.597656 257.210938 C 716.96875 257.582031 717.300781 257.988281 717.59375 258.425781 C 717.886719 258.863281 718.132812 259.324219 718.332031 259.808594 C 718.535156 260.296875 718.6875 260.796875 718.789062 261.3125 C 718.890625 261.828125 718.941406 262.347656 718.941406 262.875 Z M 718.941406 262.875 " fill-opacity="1" fill-rule="nonzero"/><path fill="#e5b948" d="M 638.382812 143.820312 C 637.589844 143.820312 636.816406 143.703125 636.058594 143.476562 C 635.296875 143.246094 634.589844 142.910156 633.929688 142.472656 C 633.269531 142.03125 632.691406 141.503906 632.1875 140.890625 C 631.683594 140.28125 631.28125 139.605469 630.976562 138.875 C 630.675781 138.144531 630.484375 137.382812 630.40625 136.59375 C 630.328125 135.804688 630.367188 135.023438 630.523438 134.246094 C 630.675781 133.46875 630.941406 132.730469 631.316406 132.03125 C 631.6875 131.332031 632.15625 130.703125 632.714844 130.140625 L 645.734375 117.125 C 646.09375 116.71875 646.492188 116.351562 646.929688 116.023438 C 647.367188 115.695312 647.832031 115.417969 648.324219 115.1875 C 648.820312 114.953125 649.332031 114.773438 649.859375 114.648438 C 650.390625 114.519531 650.929688 114.449219 651.472656 114.429688 C 652.019531 114.414062 652.558594 114.453125 653.097656 114.542969 C 653.632812 114.636719 654.15625 114.785156 654.664062 114.984375 C 655.171875 115.183594 655.652344 115.433594 656.109375 115.730469 C 656.566406 116.03125 656.988281 116.371094 657.375 116.753906 C 657.761719 117.140625 658.105469 117.558594 658.40625 118.011719 C 658.707031 118.46875 658.960938 118.949219 659.164062 119.453125 C 659.367188 119.960938 659.515625 120.480469 659.613281 121.019531 C 659.707031 121.554688 659.75 122.097656 659.734375 122.640625 C 659.722656 123.1875 659.652344 123.726562 659.527344 124.257812 C 659.40625 124.785156 659.230469 125.300781 659 125.796875 C 658.773438 126.289062 658.496094 126.757812 658.171875 127.195312 C 657.847656 127.632812 657.484375 128.035156 657.078125 128.398438 L 644.058594 141.414062 C 643.3125 142.179688 642.445312 142.769531 641.460938 143.183594 C 640.476562 143.601562 639.453125 143.8125 638.382812 143.820312 Z M 638.382812 143.820312 " fill-opacity="1" fill-rule="nonzero"/><path fill="#e5b948" d="M 391.277344 387.878906 C 391.652344 388.25 391.984375 388.65625 392.277344 389.09375 C 392.570312 389.53125 392.816406 389.992188 393.015625 390.480469 C 393.21875 390.964844 393.371094 391.46875 393.472656 391.984375 C 393.578125 392.5 393.628906 393.019531 393.628906 393.546875 C 393.628906 394.074219 393.578125 394.59375 393.472656 395.109375 C 393.371094 395.625 393.21875 396.128906 393.015625 396.613281 C 392.816406 397.101562 392.570312 397.5625 392.277344 398 C 391.984375 398.4375 391.652344 398.839844 391.277344 399.214844 L 378.261719 412.230469 C 377.890625 412.601562 377.484375 412.933594 377.046875 413.226562 C 376.609375 413.519531 376.148438 413.765625 375.664062 413.96875 C 375.175781 414.167969 374.675781 414.320312 374.160156 414.421875 C 373.644531 414.527344 373.121094 414.578125 372.59375 414.578125 C 372.070312 414.578125 371.546875 414.527344 371.03125 414.421875 C 370.515625 414.320312 370.015625 414.167969 369.527344 413.96875 C 369.042969 413.765625 368.582031 413.519531 368.144531 413.226562 C 367.707031 412.933594 367.300781 412.601562 366.929688 412.230469 C 366.554688 411.859375 366.222656 411.453125 365.933594 411.015625 C 365.640625 410.578125 365.394531 410.117188 365.191406 409.628906 C 364.988281 409.144531 364.835938 408.640625 364.734375 408.125 C 364.632812 407.609375 364.582031 407.089844 364.582031 406.5625 C 364.582031 406.035156 364.632812 405.515625 364.734375 405 C 364.835938 404.484375 364.988281 403.980469 365.191406 403.496094 C 365.394531 403.007812 365.640625 402.546875 365.933594 402.109375 C 366.222656 401.671875 366.554688 401.269531 366.929688 400.894531 L 379.945312 387.878906 C 380.316406 387.507812 380.722656 387.175781 381.160156 386.882812 C 381.597656 386.589844 382.058594 386.34375 382.542969 386.140625 C 383.03125 385.941406 383.53125 385.789062 384.046875 385.683594 C 384.5625 385.582031 385.085938 385.53125 385.613281 385.53125 C 386.136719 385.53125 386.660156 385.582031 387.175781 385.683594 C 387.691406 385.789062 388.191406 385.941406 388.679688 386.140625 C 389.164062 386.34375 389.628906 386.589844 390.066406 386.882812 C 390.5 387.175781 390.90625 387.507812 391.277344 387.878906 Z M 391.277344 387.878906 " fill-opacity="1" fill-rule="nonzero"/><path fill="#e5b948" d="M 510.226562 175.347656 C 508.792969 175.347656 507.359375 175.382812 505.929688 175.453125 C 504.5 175.523438 503.070312 175.628906 501.644531 175.769531 C 500.21875 175.910156 498.796875 176.085938 497.378906 176.296875 C 495.964844 176.503906 494.550781 176.75 493.148438 177.03125 C 491.742188 177.308594 490.34375 177.621094 488.953125 177.972656 C 487.566406 178.320312 486.183594 178.703125 484.8125 179.117188 C 483.441406 179.53125 482.082031 179.980469 480.734375 180.464844 C 479.386719 180.949219 478.050781 181.464844 476.726562 182.011719 C 475.402344 182.558594 474.09375 183.140625 472.796875 183.753906 C 471.503906 184.363281 470.222656 185.007812 468.960938 185.683594 C 467.695312 186.359375 466.449219 187.066406 465.222656 187.800781 C 463.992188 188.539062 462.78125 189.304688 461.589844 190.101562 C 460.398438 190.898438 459.230469 191.722656 458.078125 192.574219 C 456.925781 193.429688 455.796875 194.308594 454.691406 195.21875 C 453.582031 196.128906 452.5 197.0625 451.4375 198.023438 C 450.375 198.988281 449.339844 199.976562 448.324219 200.988281 C 447.3125 202 446.324219 203.039062 445.363281 204.101562 C 444.402344 205.160156 443.464844 206.246094 442.554688 207.351562 C 441.648438 208.460938 440.765625 209.589844 439.914062 210.742188 C 439.058594 211.890625 438.234375 213.0625 437.4375 214.253906 C 436.644531 215.445312 435.875 216.65625 435.140625 217.882812 C 434.402344 219.113281 433.699219 220.359375 433.023438 221.621094 C 432.347656 222.886719 431.703125 224.164062 431.089844 225.460938 C 430.476562 226.753906 429.898438 228.066406 429.351562 229.386719 C 428.800781 230.710938 428.285156 232.046875 427.804688 233.398438 C 427.320312 234.746094 426.871094 236.105469 426.457031 237.476562 C 426.039062 238.847656 425.65625 240.230469 425.308594 241.617188 C 424.960938 243.007812 424.648438 244.40625 424.367188 245.8125 C 424.089844 247.214844 423.84375 248.625 423.632812 250.042969 C 423.425781 251.460938 423.25 252.882812 423.109375 254.308594 C 422.96875 255.734375 422.863281 257.164062 422.792969 258.59375 C 422.722656 260.023438 422.6875 261.457031 422.6875 262.890625 C 422.6875 264.320312 422.722656 265.753906 422.792969 267.183594 C 422.863281 268.613281 422.96875 270.042969 423.109375 271.46875 C 423.25 272.894531 423.425781 274.316406 423.636719 275.734375 C 423.84375 277.152344 424.089844 278.5625 424.371094 279.96875 C 424.648438 281.371094 424.964844 282.769531 425.3125 284.160156 C 425.660156 285.550781 426.042969 286.929688 426.457031 288.300781 C 426.875 289.671875 427.324219 291.03125 427.804688 292.378906 C 428.289062 293.730469 428.804688 295.066406 429.351562 296.390625 C 429.902344 297.710938 430.480469 299.023438 431.09375 300.316406 C 431.707031 301.613281 432.351562 302.890625 433.027344 304.15625 C 433.703125 305.417969 434.40625 306.664062 435.144531 307.894531 C 435.878906 309.121094 436.648438 310.332031 437.441406 311.523438 C 438.238281 312.714844 439.0625 313.886719 439.917969 315.035156 C 440.769531 316.1875 441.652344 317.316406 442.5625 318.421875 C 443.46875 319.53125 444.40625 320.613281 445.367188 321.675781 C 446.328125 322.738281 447.316406 323.773438 448.332031 324.789062 C 449.34375 325.800781 450.378906 326.789062 451.441406 327.75 C 452.503906 328.710938 453.589844 329.648438 454.695312 330.558594 C 455.804688 331.464844 456.933594 332.347656 458.082031 333.199219 C 459.234375 334.054688 460.40625 334.878906 461.597656 335.671875 C 462.789062 336.46875 463.996094 337.234375 465.226562 337.972656 C 466.457031 338.707031 467.703125 339.414062 468.964844 340.089844 C 470.230469 340.765625 471.507812 341.410156 472.804688 342.019531 C 474.097656 342.632812 475.40625 343.214844 476.730469 343.761719 C 478.054688 344.3125 479.390625 344.824219 480.742188 345.308594 C 482.089844 345.792969 483.449219 346.238281 484.820312 346.65625 C 486.191406 347.070312 487.570312 347.453125 488.960938 347.800781 C 490.351562 348.148438 491.75 348.464844 493.152344 348.742188 C 494.558594 349.023438 495.96875 349.265625 497.386719 349.476562 C 498.804688 349.6875 500.226562 349.863281 501.652344 350.003906 C 503.078125 350.144531 504.503906 350.25 505.9375 350.320312 C 507.367188 350.386719 508.800781 350.421875 510.230469 350.421875 C 511.664062 350.421875 513.097656 350.386719 514.527344 350.316406 C 515.957031 350.246094 517.386719 350.140625 518.8125 350 C 520.238281 349.859375 521.660156 349.683594 523.078125 349.476562 C 524.492188 349.265625 525.90625 349.019531 527.308594 348.738281 C 528.714844 348.460938 530.113281 348.148438 531.503906 347.796875 C 532.890625 347.449219 534.273438 347.066406 535.644531 346.652344 C 537.015625 346.234375 538.375 345.785156 539.722656 345.304688 C 541.070312 344.820312 542.40625 344.304688 543.730469 343.757812 C 545.054688 343.207031 546.363281 342.628906 547.660156 342.015625 C 548.953125 341.402344 550.234375 340.757812 551.496094 340.082031 C 552.761719 339.40625 554.007812 338.703125 555.234375 337.964844 C 556.464844 337.230469 557.675781 336.460938 558.867188 335.667969 C 560.054688 334.871094 561.226562 334.046875 562.378906 333.191406 C 563.527344 332.339844 564.65625 331.457031 565.765625 330.546875 C 566.871094 329.640625 567.957031 328.703125 569.019531 327.742188 C 570.078125 326.777344 571.117188 325.792969 572.128906 324.777344 C 573.144531 323.765625 574.128906 322.726562 575.09375 321.667969 C 576.054688 320.605469 576.988281 319.519531 577.898438 318.414062 C 578.808594 317.304688 579.6875 316.175781 580.542969 315.023438 C 581.394531 313.875 582.21875 312.703125 583.015625 311.511719 C 583.8125 310.320312 584.578125 309.109375 585.3125 307.882812 C 586.050781 306.652344 586.757812 305.40625 587.429688 304.144531 C 588.105469 302.878906 588.75 301.601562 589.363281 300.304688 C 589.976562 299.007812 590.554688 297.699219 591.101562 296.375 C 591.652344 295.054688 592.167969 293.714844 592.648438 292.367188 C 593.132812 291.019531 593.582031 289.660156 593.996094 288.289062 C 594.414062 286.917969 594.792969 285.535156 595.140625 284.144531 C 595.492188 282.757812 595.804688 281.359375 596.082031 279.953125 C 596.363281 278.546875 596.605469 277.136719 596.816406 275.71875 C 597.027344 274.304688 597.203125 272.882812 597.34375 271.457031 C 597.484375 270.03125 597.589844 268.601562 597.660156 267.171875 C 597.730469 265.738281 597.761719 264.308594 597.761719 262.875 C 597.761719 261.445312 597.726562 260.011719 597.652344 258.582031 C 597.582031 257.152344 597.472656 255.722656 597.332031 254.300781 C 597.191406 252.875 597.011719 251.453125 596.800781 250.035156 C 596.589844 248.621094 596.34375 247.210938 596.0625 245.804688 C 595.78125 244.402344 595.46875 243.003906 595.117188 241.617188 C 594.769531 240.226562 594.386719 238.847656 593.96875 237.476562 C 593.550781 236.109375 593.101562 234.75 592.617188 233.402344 C 592.136719 232.054688 591.621094 230.71875 591.070312 229.394531 C 590.519531 228.070312 589.941406 226.761719 589.328125 225.46875 C 588.714844 224.175781 588.070312 222.898438 587.394531 221.632812 C 586.71875 220.371094 586.011719 219.125 585.277344 217.898438 C 584.539062 216.671875 583.773438 215.460938 582.976562 214.269531 C 582.179688 213.078125 581.355469 211.910156 580.503906 210.761719 C 579.648438 209.609375 578.769531 208.480469 577.859375 207.375 C 576.949219 206.269531 576.015625 205.183594 575.054688 204.121094 C 574.089844 203.0625 573.105469 202.023438 572.089844 201.011719 C 571.078125 200 570.042969 199.011719 568.980469 198.050781 C 567.917969 197.089844 566.835938 196.152344 565.730469 195.246094 C 564.621094 194.335938 563.492188 193.457031 562.34375 192.601562 C 561.191406 191.75 560.023438 190.925781 558.832031 190.128906 C 557.640625 189.332031 556.433594 188.566406 555.203125 187.832031 C 553.976562 187.09375 552.730469 186.386719 551.46875 185.710938 C 550.207031 185.035156 548.925781 184.390625 547.632812 183.777344 C 546.339844 183.167969 545.03125 182.585938 543.707031 182.035156 C 542.382812 181.488281 541.046875 180.972656 539.699219 180.488281 C 538.351562 180.003906 536.992188 179.554688 535.625 179.140625 C 534.253906 178.722656 532.875 178.339844 531.484375 177.992188 C 530.097656 177.640625 528.699219 177.328125 527.296875 177.046875 C 525.890625 176.765625 524.480469 176.519531 523.0625 176.308594 C 521.648438 176.097656 520.226562 175.917969 518.800781 175.777344 C 517.375 175.636719 515.949219 175.53125 514.519531 175.457031 C 513.089844 175.386719 511.65625 175.347656 510.226562 175.347656 Z M 556.210938 240.507812 L 500.144531 296.578125 C 499.769531 296.949219 499.367188 297.28125 498.929688 297.574219 C 498.492188 297.867188 498.03125 298.113281 497.542969 298.316406 C 497.058594 298.515625 496.554688 298.667969 496.039062 298.773438 C 495.523438 298.875 495.003906 298.925781 494.476562 298.925781 C 493.949219 298.925781 493.429688 298.875 492.914062 298.773438 C 492.394531 298.667969 491.894531 298.515625 491.410156 298.316406 C 490.921875 298.113281 490.460938 297.867188 490.023438 297.574219 C 489.585938 297.28125 489.179688 296.949219 488.808594 296.578125 L 464.238281 271.976562 C 463.867188 271.605469 463.535156 271.199219 463.242188 270.761719 C 462.949219 270.324219 462.699219 269.863281 462.5 269.378906 C 462.296875 268.894531 462.144531 268.390625 462.042969 267.875 C 461.9375 267.359375 461.886719 266.839844 461.886719 266.3125 C 461.886719 265.785156 461.9375 265.265625 462.039062 264.75 C 462.140625 264.234375 462.292969 263.730469 462.496094 263.246094 C 462.695312 262.757812 462.941406 262.296875 463.234375 261.859375 C 463.527344 261.421875 463.859375 261.015625 464.230469 260.644531 C 464.601562 260.273438 465.007812 259.941406 465.445312 259.648438 C 465.882812 259.355469 466.34375 259.109375 466.828125 258.90625 C 467.316406 258.703125 467.816406 258.550781 468.332031 258.449219 C 468.847656 258.347656 469.371094 258.296875 469.894531 258.296875 C 470.421875 258.296875 470.945312 258.347656 471.460938 258.449219 C 471.976562 258.550781 472.476562 258.703125 472.960938 258.90625 C 473.449219 259.105469 473.910156 259.355469 474.347656 259.644531 C 474.785156 259.9375 475.191406 260.269531 475.5625 260.644531 L 494.476562 279.585938 L 544.886719 229.183594 C 545.261719 228.828125 545.667969 228.511719 546.105469 228.234375 C 546.542969 227.957031 547 227.722656 547.484375 227.535156 C 547.964844 227.34375 548.460938 227.203125 548.96875 227.109375 C 549.476562 227.019531 549.992188 226.976562 550.507812 226.980469 C 551.023438 226.988281 551.535156 227.042969 552.042969 227.152344 C 552.550781 227.257812 553.039062 227.410156 553.519531 227.609375 C 553.996094 227.8125 554.445312 228.054688 554.875 228.34375 C 555.304688 228.632812 555.703125 228.960938 556.070312 229.328125 C 556.433594 229.691406 556.761719 230.089844 557.050781 230.519531 C 557.339844 230.949219 557.585938 231.402344 557.785156 231.878906 C 557.988281 232.355469 558.140625 232.847656 558.246094 233.351562 C 558.351562 233.859375 558.40625 234.371094 558.414062 234.886719 C 558.421875 235.40625 558.378906 235.917969 558.285156 236.425781 C 558.191406 236.9375 558.050781 237.433594 557.863281 237.914062 C 557.675781 238.394531 557.441406 238.855469 557.164062 239.289062 C 556.886719 239.726562 556.570312 240.132812 556.210938 240.507812 Z M 556.210938 240.507812 " fill-opacity="1" fill-rule="nonzero"/></svg>